<svg width="244" height="244" viewBox="0 0 244 244" fill="none" xmlns="http://www.w3.org/2000/svg">
<circle cx="121.5" cy="122.5" r="57.5" fill="#FDF5CC" stroke="#25221D" stroke-width="4"/>
<path d="M131.98 63H111.98L109.98 15C109.98 8.37 115.35 3 121.98 3C128.61 3 133.98 8.37 133.98 15L131.98 63Z" fill="white"/>
<path d="M134.86 66H109.1L106.98 15C106.98 6.73 113.71 0 121.98 0C130.25 0 136.98 6.73 136.98 15V15.12L134.86 66ZM114.86 60H129.1L130.98 14.94C130.95 10 126.92 6 121.98 6C117.04 6 113.01 10.01 112.98 14.94L114.86 60Z" fill="#25221D"/>
<path d="M149.719 68.97L130.699 62.79L143.629 16.52C145.679 10.22 152.449 6.77001 158.749 8.82001C165.049 10.87 168.499 17.64 166.449 23.94L149.719 68.97Z" fill="white"/>
<path d="M151.529 72.7102L127.039 64.7502L140.779 15.5902C143.339 7.72022 151.809 3.41023 159.679 5.96023C167.549 8.52023 171.869 17.0002 169.309 24.8602L169.269 24.9802L151.529 72.7102ZM134.359 60.8202L147.909 65.2202L163.619 22.9502C164.339 20.6802 164.139 18.2602 163.059 16.1402C161.969 14.0002 160.109 12.4102 157.819 11.6702C153.119 10.1402 148.049 12.7102 146.499 17.3902L134.359 60.8202Z" fill="#25221D"/>
<path d="M164.75 80.1298L148.57 68.3698L175.17 28.3598C179.07 22.9998 186.57 21.8098 191.93 25.7098C197.29 29.6098 198.48 37.1098 194.58 42.4698L164.75 80.1298Z" fill="white"/>
<path d="M165.311 84.2499L144.471 69.1099L172.731 26.5999C175.081 23.3599 178.561 21.2299 182.521 20.5999C186.481 19.9699 190.441 20.9199 193.681 23.2799C196.921 25.6299 199.051 29.1099 199.681 33.0699C200.311 37.0299 199.351 40.9899 197.001 44.2299L196.921 44.3299L165.301 84.2399L165.311 84.2499ZM152.661 67.6399L164.181 76.0099L192.181 40.6599C193.571 38.7199 194.131 36.3699 193.751 34.0099C193.371 31.6299 192.101 29.5499 190.151 28.1399C188.201 26.7299 185.821 26.1499 183.451 26.5299C181.091 26.8999 179.021 28.1599 177.611 30.0799L152.651 67.6399H152.661Z" fill="#25221D"/>
<path d="M175.59 95.3898L163.83 79.2098L201.49 49.3798C206.85 45.4798 214.36 46.6698 218.25 52.0298C222.15 57.3898 220.96 64.8998 215.6 68.7898L175.59 95.3898Z" fill="white"/>
<path d="M174.861 99.4893L159.721 78.6493L199.731 46.9593C206.421 42.0993 215.821 43.5893 220.681 50.2793C223.041 53.5193 223.991 57.4893 223.361 61.4393C222.731 65.3993 220.601 68.8693 217.361 71.2293L217.261 71.2993L174.851 99.4893H174.861ZM167.961 79.7793L176.331 91.2993L213.891 66.3393C215.811 64.9293 217.071 62.8593 217.441 60.4993C217.821 58.1293 217.251 55.7493 215.831 53.7993C214.421 51.8493 212.331 50.5793 209.961 50.1993C207.611 49.8293 205.251 50.3893 203.311 51.7693L167.961 79.7693V79.7793Z" fill="#25221D"/>
<path d="M181.19 113.259L175.01 94.2395L220.04 77.5095C226.34 75.4595 233.11 78.9095 235.16 85.2095C237.21 91.5095 233.76 98.2795 227.46 100.329L181.19 113.259Z" fill="white"/>
<path d="M179.23 116.92L171.27 92.4198L219.12 74.6398C226.98 72.0798 235.46 76.3998 238.02 84.2698C239.26 88.0798 238.94 92.1498 237.12 95.7198C235.3 99.2898 232.2 101.94 228.39 103.18L228.27 103.22L179.23 116.93V116.92ZM178.76 96.0398L183.16 109.59L226.59 97.4498C228.85 96.6998 230.69 95.1198 231.77 92.9898C232.86 90.8498 233.05 88.4098 232.31 86.1198C230.78 81.4198 225.73 78.8298 221.02 80.3298L178.75 96.0398H178.76Z" fill="#25221D"/>
<path d="M180.99 131.98V111.98L228.99 109.98C235.62 109.98 240.99 115.35 240.99 121.98C240.99 128.61 235.62 133.98 228.99 133.98L180.99 131.98Z" fill="white"/>
<path d="M228.99 136.98H228.87L177.99 134.86V109.1L228.99 106.98C237.26 106.98 243.99 113.71 243.99 121.98C243.99 130.25 237.26 136.98 228.99 136.98ZM183.99 129.1L229.05 130.98C233.99 130.95 237.99 126.92 237.99 121.98C237.99 117.04 233.98 113.01 229.05 112.98L183.99 114.86V129.1Z" fill="#25221D"/>
<path d="M175.02 149.719L181.2 130.699L227.47 143.629C233.77 145.679 237.22 152.449 235.17 158.749C233.12 165.049 226.35 168.499 220.05 166.449L175.02 149.719Z" fill="white"/>
<path d="M223.779 170.049C222.219 170.049 220.649 169.799 219.129 169.309L219.009 169.269L171.279 151.529L179.239 127.039L228.399 140.779C236.269 143.339 240.589 151.819 238.029 159.679C236.789 163.489 234.139 166.589 230.569 168.409C228.429 169.499 226.109 170.049 223.779 170.049ZM221.039 163.619C223.309 164.339 225.719 164.139 227.849 163.059C229.989 161.969 231.579 160.109 232.319 157.819C233.849 153.119 231.279 148.049 226.599 146.499L183.169 134.359L178.769 147.909L221.039 163.619Z" fill="#25221D"/>
<path d="M163.859 164.75L175.619 148.57L215.629 175.17C220.989 179.07 222.179 186.57 218.279 191.93C214.379 197.29 206.879 198.48 201.519 194.58L163.859 164.75Z" fill="white"/>
<path d="M208.54 199.881C205.4 199.881 202.35 198.891 199.76 197.011L199.66 196.931L159.75 165.311L174.89 144.471L217.4 172.731C224.09 177.591 225.58 186.991 220.72 193.681C218.37 196.921 214.89 199.051 210.93 199.681C210.14 199.811 209.34 199.871 208.55 199.871L208.54 199.881ZM203.33 192.191C205.26 193.581 207.62 194.141 209.98 193.761C212.35 193.381 214.44 192.111 215.85 190.161C217.26 188.221 217.83 185.841 217.46 183.461C217.09 181.101 215.83 179.031 213.91 177.621L176.35 152.661L167.98 164.181L203.33 192.181V192.191Z" fill="#25221D"/>
<path d="M148.6 175.6L164.78 163.84L194.61 201.5C198.51 206.86 197.32 214.37 191.96 218.26C186.6 222.16 179.09 220.97 175.2 215.61L148.6 175.6Z" fill="white"/>
<path d="M184.92 223.551C180.28 223.551 175.7 221.411 172.76 217.371L172.69 217.271L144.5 174.861L165.34 159.721L197.03 199.731C199.39 202.971 200.34 206.941 199.71 210.891C199.08 214.851 196.95 218.321 193.71 220.681C191.05 222.611 187.97 223.541 184.91 223.541L184.92 223.551ZM177.65 213.891C180.58 217.861 186.19 218.741 190.19 215.841C192.14 214.431 193.41 212.341 193.79 209.971C194.16 207.611 193.6 205.261 192.22 203.321L164.22 167.971L152.7 176.341L177.66 213.901L177.65 213.891Z" fill="#25221D"/>
<path d="M130.73 181.19L149.75 175.01L166.48 220.04C168.53 226.34 165.08 233.11 158.78 235.16C152.48 237.21 145.71 233.76 143.66 227.46L130.73 181.19Z" fill="white"/>
<path d="M155.061 238.76C152.731 238.76 150.411 238.21 148.271 237.12C144.701 235.3 142.051 232.2 140.811 228.39L140.771 228.27L127.061 179.23L151.551 171.27L169.331 219.12C171.891 226.99 167.571 235.47 159.701 238.02C158.171 238.52 156.611 238.76 155.051 238.76H155.061ZM146.531 226.59C148.091 231.28 153.151 233.85 157.851 232.31C162.551 230.78 165.141 225.73 163.651 221.02L147.941 178.75L134.391 183.15L146.531 226.58V226.59Z" fill="#25221D"/>
<path d="M112.01 181H132.01L134.01 229C134.01 235.63 128.64 241 122.01 241C115.38 241 110.01 235.63 110.01 229L112.01 181Z" fill="white"/>
<path d="M122.01 244C113.74 244 107.01 237.27 107.01 229V228.88L109.13 178H134.89L137.01 229C137.01 237.27 130.28 244 122.01 244ZM113.01 229.06C113.04 234 117.07 238 122.01 238C126.95 238 130.98 233.99 131.01 229.06L129.13 184H114.89L113.01 229.06Z" fill="#25221D"/>
<path d="M94.2707 175.02L113.291 181.2L100.361 227.47C98.3107 233.77 91.5407 237.22 85.2407 235.17C78.9407 233.12 75.4907 226.35 77.5407 220.05L94.2707 175.02Z" fill="white"/>
<path d="M88.9308 238.769C87.4008 238.769 85.8408 238.529 84.3108 238.029C76.4408 235.469 72.1208 226.989 74.6808 219.129L74.7208 219.009L92.4608 171.279L116.951 179.239L103.211 228.399C101.151 234.729 95.2608 238.769 88.9308 238.769ZM80.3608 221.039C78.8608 225.739 81.4608 230.799 86.1608 232.329C90.8608 233.859 95.9308 231.289 97.4808 226.609L109.621 183.179L96.0708 178.779L80.3608 221.049V221.039Z" fill="#25221D"/>
<path d="M79.241 163.859L95.421 175.619L68.821 215.629C64.921 220.989 57.421 222.179 52.061 218.279C46.701 214.379 45.511 206.879 49.411 201.519L79.241 163.859Z" fill="white"/>
<path d="M59.0904 223.56C56.0304 223.56 52.9504 222.63 50.2904 220.7C47.0504 218.35 44.9204 214.87 44.2904 210.91C43.6604 206.95 44.6204 202.99 46.9704 199.75L47.0504 199.65L78.6704 159.74L99.5104 174.88L71.2504 217.39C68.3204 221.42 63.7404 223.57 59.1004 223.57L59.0904 223.56ZM51.7904 203.32C50.4004 205.26 49.8404 207.61 50.2204 209.97C50.6004 212.34 51.8704 214.43 53.8204 215.84C57.8204 218.75 63.4304 217.87 66.3604 213.9L91.3204 176.34L79.8004 167.97L51.8004 203.32H51.7904Z" fill="#25221D"/>
<path d="M68.3894 148.6L80.1494 164.78L42.4894 194.61C37.1294 198.51 29.6194 197.32 25.7294 191.96C21.8294 186.6 23.0194 179.09 28.3794 175.2L68.3894 148.6Z" fill="white"/>
<path d="M35.4592 199.9C30.8192 199.9 26.2392 197.76 23.3092 193.72C20.9492 190.48 19.9992 186.51 20.6292 182.56C21.2592 178.61 23.3892 175.13 26.6292 172.77L26.7292 172.7L69.1292 144.51L84.2692 165.35L44.2592 197.04C41.5992 198.97 38.5192 199.9 35.4592 199.9ZM30.0992 177.66C28.1792 179.07 26.9192 181.14 26.5492 183.5C26.1692 185.88 26.7392 188.25 28.1592 190.2C29.5692 192.15 31.6592 193.42 34.0292 193.8C36.3792 194.18 38.7392 193.61 40.6792 192.23L76.0292 164.23L67.6592 152.71L30.0992 177.67V177.66Z" fill="#25221D"/>
<path d="M62.7998 130.73L68.9798 149.75L23.9498 166.48C17.6498 168.53 10.8798 165.08 8.82977 158.78C6.77977 152.48 10.2298 145.71 16.5298 143.66L62.7998 130.73Z" fill="white"/>
<path d="M20.2496 170.081C13.9296 170.081 8.0296 166.051 5.9696 159.711C4.7296 155.901 5.0496 151.831 6.8696 148.261C8.6896 144.691 11.7896 142.041 15.5996 140.801L15.7196 140.761L64.7596 127.051L72.7196 151.541L24.8696 169.321C23.3396 169.821 21.7796 170.061 20.2496 170.061V170.081ZM17.3996 146.541C15.1396 147.291 13.2996 148.871 12.2196 151.001C11.1296 153.141 10.9396 155.581 11.6796 157.871C13.2096 162.571 18.2596 165.161 22.9696 163.661L65.2396 147.951L60.8396 134.401L17.4096 146.541H17.3996Z" fill="#25221D"/>
<path d="M62.9902 112.01V132.01L14.9902 134.01C8.36023 134.01 2.99023 128.64 2.99023 122.01C2.99023 115.38 8.36023 110.01 14.9902 110.01L62.9902 112.01Z" fill="white"/>
<path d="M15.06 137.01H15C6.73 137.01 0 130.28 0 122.01C0 113.74 6.73 107.01 15 107.01H15.12L66 109.13V134.89L15.06 137.01ZM14.94 113.01C10 113.04 6 117.07 6 122.01C6 126.95 10.01 130.98 14.94 131.01L60 129.13V114.89L14.94 113.01Z" fill="#25221D"/>
<path d="M68.97 94.2707L62.79 113.291L16.52 100.361C10.22 98.3107 6.77001 91.5407 8.82001 85.2407C10.87 78.9407 17.64 75.4907 23.94 77.5407L68.97 94.2707Z" fill="white"/>
<path d="M64.7501 116.95L15.5901 103.21C7.72012 100.65 3.40011 92.17 5.96011 84.31C8.52011 76.45 16.9901 72.13 24.8601 74.68L24.9801 74.72L72.7101 92.46L64.7501 116.95ZM17.3901 97.48L60.8201 109.62L65.2201 96.07L22.9501 80.36C18.2501 78.87 13.1901 81.45 11.6701 86.16C10.1501 90.87 12.7101 95.93 17.3901 97.48Z" fill="#25221D"/>
<path d="M80.1318 79.2391L68.3718 95.4191L28.3618 68.8191C23.0018 64.9191 21.8118 57.4191 25.7118 52.0591C29.6118 46.6991 37.1118 45.5091 42.4718 49.4091L80.1318 79.2391Z" fill="white"/>
<path d="M69.1109 99.5091L26.6009 71.2492C23.3609 68.8992 21.2309 65.4191 20.6009 61.4591C19.9709 57.4991 20.9309 53.5391 23.2809 50.2991C25.6309 47.0591 29.1109 44.9291 33.0709 44.2991C37.0209 43.6691 40.9909 44.6191 44.2309 46.9791L44.3309 47.0591L84.2409 78.6791L69.1009 99.5191L69.1109 99.5091ZM30.0809 66.3592L67.6409 91.3191L76.0109 79.7992L40.6609 51.7991C38.7209 50.4091 36.3609 49.8491 34.0109 50.2291C31.6309 50.6091 29.5509 51.8791 28.1409 53.8291C26.7309 55.7691 26.1609 58.1491 26.5309 60.5292C26.9009 62.8791 28.1609 64.9591 30.0809 66.3691V66.3592Z" fill="#25221D"/>
<path d="M95.3898 68.3991L79.2098 80.1591L49.3798 42.4991C45.4798 37.1391 46.6698 29.6291 52.0298 25.7391C57.3898 21.8391 64.8998 23.0291 68.7898 28.3891L95.3898 68.3991Z" fill="white"/>
<path d="M78.6496 84.2692L46.9596 44.2592C44.5996 41.0192 43.6496 37.0492 44.2796 33.0992C44.9096 29.1392 47.0396 25.6692 50.2796 23.3092C53.5196 20.9492 57.4896 19.9992 61.4396 20.6292C65.3996 21.2592 68.8696 23.3892 71.2296 26.6292L71.2996 26.7292L99.4896 69.1292L78.6496 84.2692ZM51.7796 40.6792L79.7796 76.0292L91.2996 67.6592L66.3396 30.0992C64.9296 28.1792 62.8596 26.9192 60.4996 26.5492C58.1296 26.1692 55.7496 26.7392 53.7996 28.1592C51.8496 29.5692 50.5796 31.6592 50.1996 34.0292C49.8296 36.3892 50.3896 38.7392 51.7696 40.6792H51.7796Z" fill="#25221D"/>
<path d="M113.259 62.7998L94.2395 68.9798L77.5095 23.9498C75.4595 17.6498 78.9095 10.8798 85.2095 8.82977C91.5095 6.77977 98.2795 10.2298 100.329 16.5298L113.259 62.7998Z" fill="white"/>
<path d="M92.4296 72.7196L74.6496 24.8696C72.0896 16.9996 76.4096 8.5196 84.2796 5.9696C88.0896 4.7296 92.1596 5.0496 95.7296 6.8696C99.2996 8.6896 101.95 11.7896 103.19 15.5996L103.23 15.7196L116.94 64.7596L92.4396 72.7196H92.4296ZM80.3396 22.9596L96.0496 65.2296L109.6 60.8296L97.4596 17.3996C95.8996 12.7096 90.8396 10.1496 86.1396 11.6796C81.4396 13.2096 78.8496 18.2596 80.3396 22.9696V22.9596Z" fill="#25221D"/>
<path d="M131.98 63H111.98L109.98 15C109.98 8.37 115.35 3 121.98 3C128.61 3 133.98 8.37 133.98 15L131.98 63Z" fill="white"/>
<path d="M134.86 66H109.1L106.98 15C106.98 6.73 113.71 0 121.98 0C130.25 0 136.98 6.73 136.98 15V15.12L134.86 66ZM114.86 60H129.1L130.98 14.94C130.95 10 126.92 6 121.98 6C117.04 6 113.01 10.01 112.98 14.94L114.86 60Z" fill="#25221D"/>
<path d="M101.361 122.951C94.981 122.951 89.791 117.761 89.791 111.371C89.791 109.711 91.131 108.371 92.791 108.371C94.451 108.371 95.791 109.711 95.791 111.371C95.791 114.441 98.291 116.951 101.361 116.951C104.431 116.951 106.941 114.451 106.941 111.371C106.941 109.711 108.281 108.371 109.941 108.371C111.601 108.371 112.941 109.711 112.941 111.371C112.941 117.751 107.751 122.951 101.361 122.951Z" fill="#25221D"/>
<path d="M142.621 122.951C136.241 122.951 131.051 117.761 131.051 111.371C131.051 109.711 132.391 108.371 134.051 108.371C135.711 108.371 137.051 109.711 137.051 111.371C137.051 114.441 139.551 116.951 142.621 116.951C145.691 116.951 148.201 114.451 148.201 111.371C148.201 109.711 149.541 108.371 151.201 108.371C152.861 108.371 154.201 109.711 154.201 111.371C154.201 117.751 149.011 122.951 142.621 122.951Z" fill="#25221D"/>
<path d="M122.091 167.242C105.181 167.242 94.8009 158.202 89.0709 150.622C81.6109 140.762 78.9609 129.402 78.9609 122.672C78.9609 121.012 80.3009 119.672 81.9609 119.672C83.6209 119.672 84.9609 121.012 84.9609 122.672C84.9609 135.702 96.1709 161.252 122.091 161.252C136.511 161.252 145.351 153.512 150.231 147.022C156.731 138.372 159.031 128.502 159.031 122.682C159.031 121.022 160.371 119.682 162.031 119.682C163.691 119.682 165.031 121.022 165.031 122.682C165.031 138.222 152.441 167.262 122.091 167.262V167.242Z" fill="#25221D"/>
</svg>
