<svg width="649" height="844" viewBox="0 0 649 844" fill="none" xmlns="http://www.w3.org/2000/svg">
<path d="M180 263C213.137 263 240 236.137 240 203C240 169.863 213.137 143 180 143C146.863 143 120 169.863 120 203C120 236.137 146.863 263 180 263Z" fill="#3B3A35"/>
<path d="M409 120V260.89L483 405H409V519.5C409 542.07 400.21 563.29 384.25 579.25C368.29 595.21 347.07 604 324.5 604C301.93 604 280.71 595.21 264.75 579.25C248.79 563.29 240 542.07 240 519.5V461L120 460V519.5C120 632.44 211.56 724 324.5 724C380.97 724 432.1 701.11 469.1 664.1C506.11 627.1 529 575.97 529 519.5V120H409Z" fill="#3B3A35"/>
</svg>
