<svg width="652" height="4430" viewBox="0 0 652 4430" fill="none" xmlns="http://www.w3.org/2000/svg">
<g opacity="0.5">
<path d="M1.89925 -3.05944e-10L1.90625 4430" stroke="white" stroke-opacity="0.4" stroke-width="2"/>
<path d="M25.9051 -3.05944e-10L25.9121 4430" stroke="white" stroke-opacity="0.4" stroke-width="2"/>
<path d="M49.9129 -3.05944e-10L49.9199 4430" stroke="white" stroke-opacity="0.4" stroke-width="2"/>
<path d="M73.9207 -3.05944e-10L73.9277 4430" stroke="white" stroke-opacity="0.4" stroke-width="2"/>
<path d="M97.9266 -3.05944e-10L97.9336 4430" stroke="white" stroke-opacity="0.4" stroke-width="2"/>
<path d="M121.934 -3.05944e-10L121.941 4430" stroke="white" stroke-opacity="0.4" stroke-width="2"/>
<path d="M145.942 -3.05944e-10L145.949 4430" stroke="white" stroke-opacity="0.4" stroke-width="2"/>
<path d="M169.948 -3.05944e-10L169.955 4430" stroke="white" stroke-opacity="0.4" stroke-width="2"/>
<path d="M193.956 -3.05944e-10L193.963 4430" stroke="white" stroke-opacity="0.4" stroke-width="2"/>
<path d="M217.964 -3.05944e-10L217.971 4430" stroke="white" stroke-opacity="0.4" stroke-width="2"/>
<path d="M241.97 -3.05944e-10L241.977 4430" stroke="white" stroke-opacity="0.4" stroke-width="2"/>
<path d="M265.977 -3.05944e-10L265.984 4430" stroke="white" stroke-opacity="0.4" stroke-width="2"/>
<path d="M289.985 -3.05944e-10L289.992 4430" stroke="white" stroke-opacity="0.4" stroke-width="2"/>
<path d="M313.993 -3.05944e-10L314 4430" stroke="white" stroke-opacity="0.4" stroke-width="2"/>
<path d="M337.999 -3.05944e-10L338.006 4430" stroke="white" stroke-opacity="0.4" stroke-width="2"/>
<path d="M362.007 -3.05944e-10L362.014 4430" stroke="white" stroke-opacity="0.4" stroke-width="2"/>
<path d="M386.014 -3.05944e-10L386.021 4430" stroke="white" stroke-opacity="0.4" stroke-width="2"/>
<path d="M410.02 -3.05944e-10L410.027 4430" stroke="white" stroke-opacity="0.4" stroke-width="2"/>
<path d="M434.028 -3.05944e-10L434.035 4430" stroke="white" stroke-opacity="0.4" stroke-width="2"/>
<path d="M458.036 -3.05944e-10L458.043 4430" stroke="white" stroke-opacity="0.4" stroke-width="2"/>
<path d="M482.042 -3.05944e-10L482.049 4430" stroke="white" stroke-opacity="0.4" stroke-width="2"/>
<path d="M506.05 -3.05944e-10L506.057 4430" stroke="white" stroke-opacity="0.4" stroke-width="2"/>
<path d="M530.057 -3.05944e-10L530.064 4430" stroke="white" stroke-opacity="0.4" stroke-width="2"/>
<path d="M554.063 -3.05944e-10L554.07 4430" stroke="white" stroke-opacity="0.4" stroke-width="2"/>
<path d="M578.071 -3.05944e-10L578.078 4430" stroke="white" stroke-opacity="0.4" stroke-width="2"/>
<path d="M602.079 -3.05944e-10L602.086 4430" stroke="white" stroke-opacity="0.4" stroke-width="2"/>
<path d="M626.087 -3.05944e-10L626.094 4430" stroke="white" stroke-opacity="0.4" stroke-width="2"/>
<path d="M650.093 -3.05944e-10L650.1 4430" stroke="white" stroke-opacity="0.4" stroke-width="2"/>
</g>
</svg>
